<?xml version="1.0" standalone="no"?>
<!DOCTYPE svg PUBLIC "-//W3C//DTD SVG 20010904//EN"
 "http://www.w3.org/TR/2001/REC-SVG-20010904/DTD/svg10.dtd">
<svg version="1.0" xmlns="http://www.w3.org/2000/svg"
 width="700.000000pt" height="700.000000pt" viewBox="0 0 700.000000 700.000000"
 preserveAspectRatio="xMidYMid meet">
<metadata>
Created by potrace 1.14, written by Peter Selinger 2001-2017
</metadata>
<g transform="translate(0.000000,700.000000) scale(0.100000,-0.100000)"
fill="#000000" stroke="none">
<path d="M2075 6374 c-137 -24 -266 -45 -285 -48 -35 -6 -72 -12 -120 -21 -14
-3 -43 -7 -65 -11 -22 -3 -51 -7 -65 -10 -14 -2 -41 -7 -60 -10 -19 -3 -46 -7
-60 -10 -14 -2 -41 -7 -60 -10 -19 -3 -46 -7 -60 -10 -14 -2 -41 -7 -60 -10
-19 -3 -111 -18 -205 -34 -93 -16 -186 -31 -205 -34 -19 -3 -62 -10 -95 -16
-33 -6 -78 -13 -100 -16 -22 -4 -42 -8 -45 -11 -6 -5 -9 -5524 -4 -5534 2 -4
34 -1 71 6 38 7 86 15 108 19 22 3 49 7 60 10 11 2 56 9 100 16 44 7 89 14
100 16 11 2 31 6 45 8 14 3 41 8 60 10 19 3 49 8 65 11 38 7 129 22 175 29 19
3 46 8 60 10 14 3 41 7 60 10 19 3 44 7 55 10 11 2 56 9 100 16 44 7 89 14
100 16 11 3 36 7 55 10 19 3 87 14 150 25 63 11 131 22 150 25 48 7 139 23
170 29 28 6 101 7 140 1 14 -1 54 -7 90 -11 36 -4 72 -9 80 -10 8 -2 44 -6 80
-10 36 -4 73 -9 84 -11 10 -2 44 -6 75 -9 31 -4 67 -8 81 -10 22 -4 110 -15
243 -30 146 -18 207 -26 237 -30 14 -2 84 -11 155 -20 130 -16 184 -23 240
-30 17 -3 51 -7 77 -10 26 -3 62 -7 80 -9 18 -3 56 -8 83 -11 28 -3 64 -8 80
-10 17 -2 53 -7 80 -10 28 -3 64 -8 80 -10 17 -3 53 -7 80 -10 28 -3 64 -7 80
-10 17 -3 50 -7 75 -9 25 -3 70 -8 100 -12 81 -11 78 -11 270 21 52 9 109 18
125 21 17 2 41 6 55 9 44 8 94 17 123 20 16 2 81 14 145 25 64 11 136 23 161
26 26 3 53 7 61 9 8 3 33 7 55 10 22 4 47 8 55 10 8 2 35 7 60 10 25 3 52 8
60 10 8 2 35 7 60 10 25 3 52 8 60 10 8 2 33 7 55 10 23 3 52 8 65 10 52 10
147 26 190 31 25 3 61 9 80 14 19 5 59 11 88 15 28 4 53 12 54 18 0 7 2 1254
3 2773 l1 2761 -40 -8 c-23 -4 -61 -10 -86 -14 -25 -3 -52 -8 -60 -10 -8 -2
-33 -7 -55 -10 -23 -3 -50 -7 -62 -9 -11 -3 -37 -7 -57 -10 -33 -5 -410 -68
-481 -80 -166 -28 -224 -38 -247 -42 -16 -2 -43 -6 -60 -9 -18 -3 -58 -10 -88
-15 -30 -5 -70 -12 -87 -15 -18 -3 -48 -7 -65 -10 -18 -3 -46 -8 -63 -11 -28
-4 -112 -19 -172 -29 -16 -3 -49 -8 -75 -11 -27 -4 -48 -12 -48 -18 0 -8 -2
-8 -8 0 -4 6 -136 27 -302 48 -162 20 -403 50 -535 66 -132 17 -262 33 -289
36 -27 3 -57 7 -67 9 -10 2 -49 7 -86 10 -37 4 -70 9 -73 10 -3 2 -34 6 -70
10 -36 3 -132 15 -215 26 -82 10 -169 21 -192 24 -98 12 -134 16 -243 30 -63
8 -140 17 -170 21 -30 3 -64 7 -75 8 -11 1 -132 -17 -270 -40z"/>
</g>
</svg>
